<svg xmlns="http://www.w3.org/2000/svg" viewBox="0 0 100 100">
<!-- SVG created with Arrow, by QuiverAI (https://quiver.ai) -->
  <style type="text/css">.cls-0 {fill:#FFFFFF;}
.cls-1 {fill:#FB3315;}</style>
  <path class="cls-1" d="m52.5 37.4-11.9-27.5c-0.2-0.5-0.7-1-1.3-1.3l-21.7-7.4c-2.4-0.8-4.6 1.2-4 3.4l13.1 28.9c0.3 0.7 0.8 1.3 1.6 1.7l12.1 4.4c0.1 0.1 0.4 0.1 0.5 0 2.2-0.8 5.9-2.2 11.6-2.1v-0.1z"/>
  <path class="cls-1" d="m62.1 7.4v32.8c0 0.7 0.4 1.5 0.9 2l16.1 15.7c1.6 1.5 5 1 5-1.9v-32.4c0-0.7-0.4-1.5-0.8-1.9l-16.5-16.2c-1.5-1.5-4.7-0.6-4.7 1.9z"/>
  <path class="cls-1" d="m86.2 58.9c0-0.4-0.2-1.5-0.1-1.2v-1.1h-0.1c-0.4 1.8-1.7 3.9-5 3.9-1 0-2.1-0.4-3.1-1.2l-16.4-15.7c-0.6-0.6-1.2-1.4-1.5-2.4-2.4-0.8-5.2-1.6-9-1.6-3.3 0-7.3 0.7-11.2 2.6l-20.6 11.6c-1.7 1.1-3 2.9-3 5.5v5.7c2.8 1.5 5.5 5.5 5.7 10.1 0 0.3-0.2 0.6-0.4 0.5l-1.8-1c-0.5-2.2-2-5.2-3.5-6.7v12.1c0.2 2 1.1 3.9 3 5.1l19.2 10.6c3.3 1.9 7.5 3.4 13 3.5 4.4 0 8.8-0.8 12.8-2.8l19.4-11c1.8-1 3.1-3 3.1-5.8v-20.7zm-51.7 26.9-4.4-2.4-0.5 0.2v4l-0.2 0.2-2-1.1v-3.8c0-0.8-0.5-1.5-1.2-1.9l-3.5-1.9-0.1-0.2v-1.5l0.3-0.2 4.1 2.2 0.4-0.2v-3.6l0.3-0.2 1.9 1v3.8c0 0.5 0.3 0.9 0.8 1.2l4 2.2 0.1 0.2v1.8 0.2zm22.1-1-2 1.2c-4.2-4.1-7-5.1-9-5.1-2.7 0-4.9 1.3-7 4.4l-2-1-0.1-0.2c0-0.5 3.4-5.6 9.1-5.6 5.8-0.1 11 5.6 11.1 5.9l-0.1 0.4z"/>
</svg>