<svg xmlns="http://www.w3.org/2000/svg" width="1024" height="1024" viewBox="274 273 476 476">
<g>
<path d="M 0.00 0.00 L 1024.00 0.00 L 1024.00 1024.00 L 0.00 1024.00 ZM 609.36 647.75 C645.27,683.79 649.80,688.00 652.63,688.00 C655.29,688.00 657.69,686.18 668.06,676.25 C682.59,662.33 690.00,653.71 690.00,650.72 C690.00,649.18 674.04,632.57 635.26,593.77 L 580.52 539.00 L 657.57 539.00 C721.59,539.00 734.94,538.77 736.51,537.62 C737.92,536.58 738.59,534.36 739.14,528.87 C740.10,519.25 740.10,501.31 739.13,492.61 C738.81,489.67 739.08,487.55 738.25,486.00 C736.07,481.92 726.23,481.93 677.44,481.99 C671.31,481.99 664.57,482.00 657.15,482.00 L 580.52 482.00 L 635.26 427.23 C665.37,397.10 690.00,371.79 690.00,370.98 C689.99,368.34 686.43,363.55 677.38,354.03 C664.58,340.56 655.54,333.00 652.23,333.00 C649.97,333.00 640.26,342.25 594.75,387.75 L 540.00 442.49 L 540.00 287.31 L 537.90 285.40 C535.95,283.64 533.99,283.50 512.00,283.50 C490.01,283.50 488.05,283.64 486.10,285.40 L 484.00 287.31 L 484.00 442.48 L 429.23 387.74 C383.98,342.52 373.99,333.00 371.76,333.00 C368.77,333.00 365.46,335.54 353.65,346.93 C342.24,357.93 334.00,367.71 334.00,370.25 C334.00,371.80 345.69,384.15 374.20,412.69 C405.59,444.11 415.66,453.60 420.12,455.98 C432.55,462.61 430.44,462.35 478.50,462.98 L 522.50 463.55 L 529.00 466.28 C542.25,471.85 552.96,483.07 557.15,495.76 C559.27,502.18 559.41,504.57 559.98,546.00 C560.63,593.21 560.52,592.23 566.66,602.97 C568.16,605.60 586.07,624.38 609.36,647.75 ZM 500.50 738.25 C515.19,738.66 533.30,737.92 536.26,736.80 C537.78,736.22 539.26,734.79 539.54,733.62 C539.83,732.46 539.94,679.74 539.78,616.48 L 539.50 501.45 L 536.06 496.10 C534.17,493.15 530.84,489.45 528.65,487.86 C527.64,487.13 526.82,486.49 525.95,485.92 C519.86,481.99 511.23,481.99 415.49,482.00 C411.30,482.00 406.95,482.00 402.43,482.00 C391.08,482.00 380.83,481.99 371.57,481.98 C298.83,481.93 287.29,481.92 285.41,486.17 C285.06,486.97 285.05,487.93 285.04,489.06 C285.03,489.82 285.02,490.67 284.90,491.61 C283.93,499.41 283.91,520.76 284.87,529.38 C285.42,534.34 286.15,536.64 287.51,537.63 C289.06,538.76 302.72,539.00 366.43,539.00 L 443.48 539.00 L 388.74 593.77 C349.56,632.97 334.00,649.17 334.00,650.75 C334.00,653.62 342.79,663.76 356.97,677.25 C366.38,686.20 368.79,688.00 371.39,688.00 C374.17,688.00 380.25,682.25 428.50,634.00 C458.20,604.30 482.83,580.00 483.25,580.00 C483.66,580.00 484.00,614.62 484.00,656.93 C484.00,725.50 484.17,734.03 485.57,735.43 C487.68,737.53 489.91,737.96 500.50,738.25 Z" fill="rgb(0,0,0)"/>
<path d="M 500.50 738.25 C489.91,737.96 487.68,737.53 485.57,735.43 C484.17,734.03 484.00,725.50 484.00,656.93 C484.00,614.62 483.66,580.00 483.25,580.00 C482.83,580.00 458.20,604.30 428.50,634.00 C380.25,682.25 374.17,688.00 371.39,688.00 C368.79,688.00 366.38,686.20 356.97,677.25 C342.79,663.76 334.00,653.62 334.00,650.75 C334.00,649.17 349.56,632.97 388.74,593.77 L 443.48 539.00 L 366.43 539.00 C302.72,539.00 289.06,538.76 287.51,537.63 C286.15,536.64 285.42,534.34 284.87,529.38 C283.91,520.76 283.93,499.41 284.90,491.61 C286.23,480.98 273.77,482.00 402.43,482.00 C525.25,482.00 520.24,481.77 528.65,487.86 C530.84,489.45 534.17,493.15 536.06,496.10 L 539.50 501.45 L 539.78 616.48 C539.94,679.74 539.83,732.46 539.54,733.62 C539.26,734.79 537.78,736.22 536.26,736.80 C533.30,737.92 515.19,738.66 500.50,738.25 ZM 609.36 647.75 C586.07,624.38 568.16,605.60 566.66,602.97 C560.52,592.23 560.63,593.21 559.98,546.00 C559.41,504.57 559.27,502.18 557.15,495.76 C552.96,483.07 542.25,471.85 529.00,466.28 L 522.50 463.55 L 478.50 462.98 C430.44,462.35 432.55,462.61 420.12,455.98 C415.66,453.60 405.59,444.11 374.20,412.69 C345.69,384.15 334.00,371.80 334.00,370.25 C334.00,367.71 342.24,357.93 353.65,346.93 C365.46,335.54 368.77,333.00 371.76,333.00 C373.99,333.00 383.98,342.52 429.23,387.74 L 484.00 442.48 L 484.00 364.89 L 484.00 287.31 L 486.10 285.40 C488.05,283.64 490.01,283.50 512.00,283.50 C533.99,283.50 535.95,283.64 537.90,285.40 L 540.00 287.31 L 540.00 364.90 L 540.00 442.49 L 594.75 387.75 C640.26,342.25 649.97,333.00 652.23,333.00 C655.54,333.00 664.58,340.56 677.38,354.03 C686.43,363.55 689.99,368.34 690.00,370.98 C690.00,371.79 665.37,397.10 635.26,427.23 L 580.52 482.00 L 657.15 482.00 C745.98,482.00 737.84,480.95 739.13,492.61 C740.10,501.31 740.10,519.25 739.14,528.87 C738.59,534.36 737.92,536.58 736.51,537.62 C734.94,538.77 721.59,539.00 657.57,539.00 L 580.52 539.00 L 635.26 593.77 C674.04,632.57 690.00,649.18 690.00,650.72 C690.00,653.71 682.59,662.33 668.06,676.25 C657.69,686.18 655.29,688.00 652.63,688.00 C649.80,688.00 645.27,683.79 609.36,647.75 Z" fill="rgb(251,251,251)"/>
</g>
</svg>