<svg xmlns="http://www.w3.org/2000/svg" width="640" height="640" viewBox="0 0 640 640">
<g>
<path d="M 0.00 0.00 L 640.00 0.00 L 640.00 640.00 L 0.00 640.00 ZM 291.63 499.93 C294.04,501.82 295.60,502.00 309.68,502.00 C324.76,502.00 325.14,501.95 327.58,499.51 C329.72,497.37 330.04,496.22 329.88,491.05 C329.64,483.02 330.63,482.00 338.67,482.00 C344.15,482.00 345.45,481.64 347.55,479.55 C349.57,477.52 350.00,476.10 350.00,471.50 C350.00,466.90 349.57,465.48 347.55,463.45 C345.14,461.05 344.78,461.00 328.60,461.00 C309.12,461.00 309.00,460.93 309.00,450.33 C309.00,442.45 307.34,441.00 298.33,441.00 C290.55,441.00 289.00,439.30 289.00,430.78 C289.00,422.73 290.85,421.00 299.43,421.00 C307.87,421.00 309.00,419.87 309.00,411.43 C309.00,401.24 309.45,401.00 329.25,400.98 C338.19,400.98 346.00,400.64 346.60,400.23 C350.45,397.66 351.37,386.37 348.00,383.00 C346.17,381.17 344.66,381.00 329.75,380.98 C320.81,380.98 313.00,380.64 312.40,380.23 C308.73,377.79 307.67,366.80 310.75,363.15 C312.38,361.22 313.71,361.05 329.71,360.79 C345.56,360.52 347.04,360.34 348.43,358.50 C349.72,356.79 349.94,349.88 349.97,310.08 C350.00,268.31 350.17,263.47 351.65,261.83 C353.13,260.20 355.10,260.00 370.10,260.00 C389.92,260.00 390.00,259.96 390.00,249.33 C390.00,241.51 391.68,240.00 400.39,240.00 C408.58,240.00 410.00,238.57 410.00,230.35 C410.00,221.74 408.29,220.00 399.83,220.00 C399.46,220.00 399.11,220.00 398.77,220.00 C395.92,220.01 393.99,220.02 392.69,219.12 C389.99,217.26 389.99,211.48 390.00,193.73 C390.00,192.72 390.00,191.66 390.00,190.57 C390.00,189.52 390.00,188.51 390.00,187.54 C390.01,169.03 390.01,163.13 387.21,161.09 C385.75,160.04 383.52,160.03 380.15,159.84 C371.02,159.32 370.00,158.37 370.00,150.33 C370.00,144.87 369.64,143.55 367.58,141.49 L 365.17 139.08 L 319.70 139.05 C275.29,139.03 274.18,139.07 271.62,141.09 C269.29,142.91 269.00,143.85 269.00,149.38 L 269.00 149.51 C269.00,153.38 269.00,155.74 267.85,157.21 C266.04,159.52 261.37,159.59 249.33,159.82 C229.15,160.20 229.00,160.28 229.00,169.46 C229.00,178.14 227.98,179.16 218.60,179.93 C213.46,180.35 210.58,181.05 209.96,182.03 C209.40,182.91 209.02,222.50 209.02,280.42 C209.01,290.19 209.00,299.03 209.00,307.01 C208.93,368.15 208.92,379.34 212.90,381.01 C213.80,381.39 214.89,381.28 216.23,381.16 C217.01,381.08 217.87,381.00 218.83,381.00 C219.26,381.00 219.67,381.00 220.06,381.00 C223.00,380.98 224.98,380.97 226.30,381.89 C229.02,383.78 229.01,389.57 229.00,407.21 C229.00,408.36 229.00,409.57 229.00,410.83 C229.00,411.82 229.00,412.78 229.00,413.71 C228.99,432.40 228.99,438.30 231.73,440.16 C233.00,441.02 234.85,441.01 237.56,441.00 C237.85,441.00 238.15,441.00 238.47,441.00 C247.12,441.00 249.00,442.87 249.00,451.47 C249.00,459.81 250.17,461.00 258.35,461.00 C267.46,461.00 269.00,462.41 269.00,470.74 C269.00,480.10 270.88,482.00 280.14,482.00 C288.25,482.00 289.00,482.84 289.00,491.86 C289.00,497.15 289.31,498.10 291.63,499.93 ZM 286.78 319.44 C284.91,320.75 280.49,321.00 258.78,321.00 C258.00,321.00 257.24,321.00 256.50,321.00 C238.07,321.00 231.98,321.01 229.98,318.15 C228.99,316.73 228.99,314.63 229.00,311.48 C229.00,311.22 229.00,310.96 229.00,310.69 C229.00,302.24 229.99,301.13 237.83,300.87 C247.05,300.57 249.00,298.75 249.00,290.47 C249.00,281.70 247.18,280.00 237.85,280.00 C229.70,280.00 229.00,279.19 229.00,269.72 C229.00,269.17 228.99,268.65 228.99,268.16 C228.96,265.84 228.94,264.19 229.67,263.00 C231.54,259.97 238.30,259.98 262.24,260.00 C264.24,260.00 266.36,260.00 268.61,260.00 C299.52,260.00 304.87,260.22 306.78,261.56 C308.93,263.06 309.00,263.67 309.00,280.50 C309.00,300.97 308.99,301.00 298.43,301.00 C290.30,301.00 289.00,302.41 289.00,311.27 C289.00,316.97 288.69,318.10 286.78,319.44 ZM 371.65 379.17 C373.13,380.80 375.09,381.00 389.65,381.00 C409.47,381.00 410.00,380.74 410.00,370.83 C410.00,362.46 411.40,361.00 419.43,361.00 C429.93,361.00 430.00,360.87 430.00,341.27 C430.00,327.22 429.75,324.38 428.35,322.83 C426.82,321.14 424.58,321.00 399.92,321.00 C376.91,321.00 372.92,321.22 371.57,322.57 C370.22,323.92 370.00,327.89 370.00,350.74 C370.00,374.09 370.20,377.57 371.65,379.17 Z" fill="rgb(0,0,0)"/>
<path d="M 291.63 499.93 C289.31,498.10 289.00,497.15 289.00,491.86 C289.00,482.84 288.25,482.00 280.14,482.00 C270.88,482.00 269.00,480.10 269.00,470.74 C269.00,462.41 267.46,461.00 258.35,461.00 C250.17,461.00 249.00,459.81 249.00,451.47 C249.00,442.87 247.12,441.00 238.47,441.00 C228.68,441.00 229.00,442.03 229.00,410.83 C229.00,379.69 229.45,381.00 218.83,381.00 C207.96,381.00 209.00,391.62 209.02,280.42 C209.02,222.50 209.40,182.91 209.96,182.03 C210.58,181.05 213.46,180.35 218.60,179.93 C227.98,179.16 229.00,178.14 229.00,169.46 C229.00,160.28 229.15,160.20 249.33,159.82 C269.09,159.44 269.00,159.49 269.00,149.38 C269.00,143.85 269.29,142.91 271.62,141.09 C274.18,139.07 275.29,139.03 319.70,139.05 L 365.17 139.08 L 367.58 141.49 C369.64,143.55 370.00,144.87 370.00,150.33 C370.00,158.37 371.02,159.32 380.15,159.84 C390.35,160.42 390.00,159.31 390.00,190.57 C390.00,221.13 389.62,220.00 399.83,220.00 C408.29,220.00 410.00,221.74 410.00,230.35 C410.00,238.57 408.58,240.00 400.39,240.00 C391.68,240.00 390.00,241.51 390.00,249.33 C390.00,259.96 389.92,260.00 370.10,260.00 C355.10,260.00 353.13,260.20 351.65,261.83 C350.17,263.47 350.00,268.31 349.97,310.08 C349.94,349.88 349.72,356.79 348.43,358.50 C347.04,360.34 345.56,360.52 329.71,360.79 C313.71,361.05 312.38,361.22 310.75,363.15 C307.67,366.80 308.73,377.79 312.40,380.23 C313.00,380.64 320.81,380.98 329.75,380.98 C344.66,381.00 346.17,381.17 348.00,383.00 C351.37,386.37 350.45,397.66 346.60,400.23 C346.00,400.64 338.19,400.98 329.25,400.98 C309.45,401.00 309.00,401.24 309.00,411.43 C309.00,419.87 307.87,421.00 299.43,421.00 C290.85,421.00 289.00,422.73 289.00,430.78 C289.00,439.30 290.55,441.00 298.33,441.00 C307.34,441.00 309.00,442.45 309.00,450.33 C309.00,460.93 309.12,461.00 328.60,461.00 C344.78,461.00 345.14,461.05 347.55,463.45 C349.57,465.48 350.00,466.90 350.00,471.50 C350.00,476.10 349.57,477.52 347.55,479.55 C345.45,481.64 344.15,482.00 338.67,482.00 C330.63,482.00 329.64,483.02 329.88,491.05 C330.04,496.22 329.72,497.37 327.58,499.51 C325.14,501.95 324.76,502.00 309.68,502.00 C295.60,502.00 294.04,501.82 291.63,499.93 ZM 286.78 319.44 C288.69,318.10 289.00,316.97 289.00,311.27 C289.00,302.41 290.30,301.00 298.43,301.00 C308.99,301.00 309.00,300.97 309.00,280.50 C309.00,263.67 308.93,263.06 306.78,261.56 C304.87,260.22 299.52,260.00 268.61,260.00 C226.63,260.00 229.00,259.42 229.00,269.72 C229.00,279.19 229.70,280.00 237.85,280.00 C247.18,280.00 249.00,281.70 249.00,290.47 C249.00,298.75 247.05,300.57 237.83,300.87 C229.99,301.13 229.00,302.24 229.00,310.69 C229.00,321.28 228.20,321.00 258.78,321.00 C280.49,321.00 284.91,320.75 286.78,319.44 ZM 371.65 379.17 C370.20,377.57 370.00,374.09 370.00,350.74 C370.00,327.89 370.22,323.92 371.57,322.57 C372.92,321.22 376.91,321.00 399.92,321.00 C424.58,321.00 426.82,321.14 428.35,322.83 C429.75,324.38 430.00,327.22 430.00,341.27 C430.00,360.87 429.93,361.00 419.43,361.00 C411.40,361.00 410.00,362.46 410.00,370.83 C410.00,380.74 409.47,381.00 389.65,381.00 C375.09,381.00 373.13,380.80 371.65,379.17 Z" fill="rgb(253,253,253)"/>
</g>
</svg>