<svg xmlns="http://www.w3.org/2000/svg" width="1182" height="887" viewBox="0 0 1182 887">
<g>
<path d="M 0.00 0.00 L 1182.00 0.00 L 1182.00 887.00 L 0.00 887.00 ZM 407.67 621.34 C408.04,621.70 490.95,621.89 591.92,621.75 L 775.50 621.50 L 775.75 456.25 L 776.01 291.00 L 710.01 291.00 L 709.50 555.50 L 474.50 555.50 L 474.23 538.75 L 473.95 522.01 L 574.73 521.75 L 675.50 521.50 L 676.03 456.00 L 407.00 456.00 L 407.00 538.33 C407.00,583.62 407.30,620.97 407.67,621.34 ZM 407.68 422.35 C408.05,422.72 423.02,422.91 440.93,422.76 L 473.50 422.50 L 473.75 326.36 C473.96,249.93 473.75,230.14 472.75,229.86 C472.06,229.66 456.99,229.62 439.25,229.78 L 407.00 230.05 L 407.00 325.86 C407.00,378.55 407.31,421.97 407.68,422.35 ZM 609.68 422.35 C610.05,422.72 625.02,422.91 642.93,422.76 L 675.50 422.50 L 676.03 356.00 L 609.00 356.00 L 609.00 388.83 C609.00,406.89 609.31,421.97 609.68,422.35 ZM 508.00 356.00 L 508.00 423.03 L 573.50 422.50 L 574.03 356.00 Z" fill="rgb(1,1,1)"/>
<path d="M 407.67 621.34 C407.30,620.97 407.00,583.62 407.00,538.33 L 407.00 456.00 L 541.51 456.00 L 676.03 456.00 L 675.76 488.75 L 675.50 521.50 L 574.73 521.75 L 473.95 522.01 L 474.23 538.75 L 474.50 555.50 L 592.00 555.50 L 709.50 555.50 L 709.75 423.25 L 710.01 291.00 L 743.01 291.00 L 776.01 291.00 L 775.75 456.25 L 775.50 621.50 L 591.92 621.75 C490.95,621.89 408.04,621.70 407.67,621.34 ZM 407.68 422.35 C407.31,421.97 407.00,378.55 407.00,325.86 L 407.00 230.05 L 439.25 229.78 C456.99,229.62 472.06,229.66 472.75,229.86 C473.75,230.14 473.96,249.93 473.75,326.36 L 473.50 422.50 L 440.93 422.76 C423.02,422.91 408.05,422.72 407.68,422.35 ZM 508.00 389.51 L 508.00 356.00 L 541.01 356.00 L 574.03 356.00 L 573.76 389.25 L 573.50 422.50 L 540.75 422.76 L 508.00 423.03 L 508.00 389.51 ZM 609.68 422.35 C609.31,421.97 609.00,406.89 609.00,388.83 L 609.00 356.00 L 642.51 356.00 L 676.03 356.00 L 675.76 389.25 L 675.50 422.50 L 642.93 422.76 C625.02,422.91 610.05,422.72 609.68,422.35 Z" fill="rgb(253,253,253)"/>
</g>
</svg>